# xmcd CD database file
#
# Track frame offsets:
#	150
#	11402
#	30923
#	45309
#	53646
#	66171
#	81733
#	96838
#	108441
#	128468
#	146462
#	158718
#	175806
#	186282
#
# Disc length: 2653 seconds
#
# Revision: 0
# Processed by: cddbd v1.5.2PL0 Copyright (c) Steve Scherf et al.
# Submitted via: cdripper 1,0,39,0213
#
DISCID=ab0a5b0e
DTITLE=Sergio Mendes - Essential CD 2
DYEAR=1900
DGENRE=Jazz
TTITLE0=Ye Me Le
TTITLE1=Never Gonna Let You Go
TTITLE2=Night and Day
TTITLE3=One Note Samba
TTITLE4=Pais Tropical
TTITLE5=Pretty World
TTITLE6=Scarborough Fair
TTITLE7=Slow Hot Wind
TTITLE8=So Many Stars
TTITLE9=Song of Regrets
TTITLE10=The Joker
TTITLE11=Voce Abuso
TTITLE12=Wave
TTITLE13=Wichita Lineman
EXTD=
EXTT0=
EXTT1=
EXTT2=
EXTT3=
EXTT4=
EXTT5=
EXTT6=
EXTT7=
EXTT8=
EXTT9=
EXTT10=
EXTT11=
EXTT12=
EXTT13=
PLAYORDER=
